# xmcd CD database file
# 
# Track frame offsets:
# 	183
# 	16718
# 	40068
# 	56058
# 	77633
# 	96743
# 	115498
# 	131490
# 	147758
# 	165760
# 	182875
# 	198415
# 
# Disc length: 2813 seconds
# 
# Submitted via: Nero 5.5.10.20
# 
# Revision: 0
# Processed by: cddbd v1.4PL0 Copyright (c) Steve Scherf et al.
#
DISCID=9d0afb0c
DTITLE=B.B. KING - Blues Is King
DYEAR=1900
DGENRE=
TTITLE0=Waitin' on You
TTITLE1=Gamblers' Blues
TTITLE2=Tired of Your Jive
TTITLE3=Night Life
TTITLE4=Buzz Me
TTITLE5=Don't Answer The Door
TTITLE6=Blind Love
TTITLE7=I Know What You're Puttin' Down
TTITLE8=Baby Get Lost
TTITLE9=Gonna Keep on Loving You
TTITLE10=Sweet Sixteen (Part 1)
TTITLE11=Sweet Sixteen (Part 2)
EXTD=
EXTT0=
EXTT1=
EXTT2=
EXTT3=
EXTT4=
EXTT5=
EXTT6=
EXTT7=
EXTT8=
EXTT9=
EXTT10=
EXTT11=
PLAYORDER=
